# xmcd CD database file
#
# Track frame offsets:
#	150
#	21655
#	42967
#	71357
#	89907
#	117102
#	136027
#	161095
#	190577
#	216035
#	229617
#	248275
#
# Disc length: 3675 seconds
#
# Revision: 0
# Processed by: cddbd v1.5.2PL0 Copyright (c) Steve Scherf et al.
# Submitted via: CDex 1.51
#
DISCID=9b0e590c
DTITLE=Harry Connick Jr. - chanson du vieux carre
DYEAR=2007
DGENRE=Jazz
TTITLE0=Someday You'll be Sorry
TTITLE1=Panama
TTITLE2=Ash Wednesday
TTITLE3=Chanson Du Vieux Carre
TTITLE4=Burbon Street Parade
TTITLE5=Petite Fleur
TTITLE6=Fidgety Feet
TTITLE7=Luscious
TTITLE8=New Orleans
TTITLE9=I Still Get Jealous
TTITLE10=That's a Plenty
TTITLE11=Mardi Gras in New Orleans
EXTD=YEAR: 2007
EXTT0=
EXTT1=
EXTT2=
EXTT3=
EXTT4=
EXTT5=
EXTT6=
EXTT7=
EXTT8=
EXTT9=
EXTT10=
EXTT11=
PLAYORDER=
